<mxfile host="Electron" agent="Mozilla/5.0 (Windows NT 10.0; Win64; x64) AppleWebKit/537.36 (KHTML, like Gecko) draw.io/26.1.1 Chrome/132.0.6834.210 Electron/34.3.3 Safari/537.36" version="26.1.1">
  <diagram id="C5RBs43oDa-KdzZeNtuy" name="Page-1">
    <mxGraphModel dx="1434" dy="844" grid="1" gridSize="10" guides="1" tooltips="1" connect="1" arrows="1" fold="1" page="1" pageScale="1" pageWidth="827" pageHeight="1169" math="0" shadow="0">
      <root>
        <mxCell id="WIyWlLk6GJQsqaUBKTNV-0" />
        <mxCell id="WIyWlLk6GJQsqaUBKTNV-1" parent="WIyWlLk6GJQsqaUBKTNV-0" />
        <mxCell id="aiUp11ynUYs_fyFJ-DtX-11" value="" style="edgeStyle=orthogonalEdgeStyle;rounded=0;orthogonalLoop=1;jettySize=auto;html=1;" edge="1" parent="WIyWlLk6GJQsqaUBKTNV-1" source="aiUp11ynUYs_fyFJ-DtX-0" target="aiUp11ynUYs_fyFJ-DtX-9">
          <mxGeometry relative="1" as="geometry" />
        </mxCell>
        <mxCell id="aiUp11ynUYs_fyFJ-DtX-0" value="&lt;b&gt;Frontend (Vite)&lt;/b&gt;&lt;div&gt;&lt;b&gt;&lt;br&gt;&lt;/b&gt;&lt;div&gt;-UI (React + Typescript)&lt;/div&gt;&lt;div&gt;-Wyświetlanie produktów&lt;/div&gt;&lt;/div&gt;&lt;div&gt;-Składanie zamówienia&lt;/div&gt;" style="shape=hexagon;perimeter=hexagonPerimeter2;whiteSpace=wrap;html=1;fixedSize=1;fillColor=#ffe6cc;strokeColor=#d79b00;" vertex="1" parent="WIyWlLk6GJQsqaUBKTNV-1">
          <mxGeometry x="242.5" y="20" width="160" height="100" as="geometry" />
        </mxCell>
        <mxCell id="aiUp11ynUYs_fyFJ-DtX-7" value="" style="edgeStyle=orthogonalEdgeStyle;rounded=0;orthogonalLoop=1;jettySize=auto;html=1;" edge="1" parent="WIyWlLk6GJQsqaUBKTNV-1" source="aiUp11ynUYs_fyFJ-DtX-2" target="aiUp11ynUYs_fyFJ-DtX-0">
          <mxGeometry relative="1" as="geometry" />
        </mxCell>
        <mxCell id="aiUp11ynUYs_fyFJ-DtX-2" value="&lt;b&gt;Admin Verification&lt;/b&gt;&lt;div&gt;&lt;b&gt;&lt;br&gt;&lt;/b&gt;&lt;div&gt;&lt;b&gt;&lt;br&gt;&lt;/b&gt;&lt;/div&gt;&lt;div&gt;-Auth.js&lt;/div&gt;&lt;/div&gt;" style="shape=hexagon;perimeter=hexagonPerimeter2;whiteSpace=wrap;html=1;fixedSize=1;fillColor=#ffe6cc;strokeColor=#d79b00;" vertex="1" parent="WIyWlLk6GJQsqaUBKTNV-1">
          <mxGeometry x="10" y="20" width="166" height="100" as="geometry" />
        </mxCell>
        <mxCell id="aiUp11ynUYs_fyFJ-DtX-3" value="&lt;b&gt;Database(apache Cassandra)&lt;/b&gt;&lt;div&gt;&lt;br&gt;&lt;/div&gt;&lt;div&gt;-Przechowywanie informacji o zamówieniach&lt;/div&gt;&lt;div&gt;-Katalog produktów&lt;/div&gt;&lt;div&gt;&lt;br&gt;&lt;/div&gt;" style="shape=hexagon;perimeter=hexagonPerimeter2;whiteSpace=wrap;html=1;fixedSize=1;fillColor=#dae8fc;strokeColor=#6c8ebf;" vertex="1" parent="WIyWlLk6GJQsqaUBKTNV-1">
          <mxGeometry x="82.5" y="350" width="160" height="110" as="geometry" />
        </mxCell>
        <mxCell id="aiUp11ynUYs_fyFJ-DtX-12" style="edgeStyle=orthogonalEdgeStyle;rounded=0;orthogonalLoop=1;jettySize=auto;html=1;entryX=0.5;entryY=0;entryDx=0;entryDy=0;" edge="1" parent="WIyWlLk6GJQsqaUBKTNV-1" source="aiUp11ynUYs_fyFJ-DtX-9" target="aiUp11ynUYs_fyFJ-DtX-3">
          <mxGeometry relative="1" as="geometry" />
        </mxCell>
        <mxCell id="aiUp11ynUYs_fyFJ-DtX-15" style="edgeStyle=orthogonalEdgeStyle;rounded=0;orthogonalLoop=1;jettySize=auto;html=1;entryX=0.5;entryY=0;entryDx=0;entryDy=0;" edge="1" parent="WIyWlLk6GJQsqaUBKTNV-1" source="aiUp11ynUYs_fyFJ-DtX-9" target="aiUp11ynUYs_fyFJ-DtX-10">
          <mxGeometry relative="1" as="geometry" />
        </mxCell>
        <mxCell id="aiUp11ynUYs_fyFJ-DtX-9" value="&lt;div&gt;&lt;b&gt;Serwer (express.js)&lt;/b&gt;&lt;/div&gt;&lt;div&gt;&lt;b&gt;-&lt;/b&gt;Komunikacja ze sterownikiem PLC (&lt;b&gt;node-snap7)&lt;/b&gt;&lt;/div&gt;&lt;div&gt;-Przesyłanie informacji o zamówieniu&lt;/div&gt;&lt;div&gt;-Przesyłanie katalogu produktów&lt;/div&gt;" style="shape=hexagon;perimeter=hexagonPerimeter2;whiteSpace=wrap;html=1;fixedSize=1;fillColor=#dae8fc;strokeColor=#6c8ebf;" vertex="1" parent="WIyWlLk6GJQsqaUBKTNV-1">
          <mxGeometry x="225" y="170" width="195" height="140" as="geometry" />
        </mxCell>
        <mxCell id="aiUp11ynUYs_fyFJ-DtX-10" value="&lt;b&gt;Sterownik Siemens S7&lt;/b&gt;&lt;div&gt;&lt;br&gt;&lt;/div&gt;&lt;div&gt;&lt;b&gt;-&lt;/b&gt;Sterowanie regałem(Kontrola siłowników, silników)&lt;/div&gt;" style="shape=hexagon;perimeter=hexagonPerimeter2;whiteSpace=wrap;html=1;fixedSize=1;fillColor=#dae8fc;strokeColor=#6c8ebf;" vertex="1" parent="WIyWlLk6GJQsqaUBKTNV-1">
          <mxGeometry x="400" y="350" width="170" height="110" as="geometry" />
        </mxCell>
      </root>
    </mxGraphModel>
  </diagram>
</mxfile>
